<?xml version="1.0" encoding="UTF-8" standalone="no"?>
<!DOCTYPE svg PUBLIC "-//W3C//DTD SVG 1.1//EN" "http://www.w3.org/Graphics/SVG/1.1/DTD/svg11.dtd">
<svg width="100%" height="100%" viewBox="0 0 800 800" version="1.1" xmlns="http://www.w3.org/2000/svg" xmlns:xlink="http://www.w3.org/1999/xlink" xml:space="preserve" style="fill-rule:evenodd;clip-rule:evenodd;stroke-linejoin:round;stroke-miterlimit:1.41421;">
    <g id="path3093-1" transform="matrix(4.8003,0,0,4.8003,-1349.35,-1255.73)">
        <path d="M366.657,282.375C358.672,282.375 352.157,288.891 352.157,296.875C352.157,304.859 358.672,311.375 366.657,311.375C374.641,311.375 381.157,304.859 381.157,296.875C381.157,288.891 374.641,282.375 366.657,282.375ZM366.657,286.375C372.48,286.375 377.157,291.052 377.157,296.875C377.157,302.698 372.48,307.375 366.657,307.375C360.834,307.375 356.157,302.698 356.157,296.875C356.157,291.052 360.834,286.375 366.657,286.375ZM401.657,310.375C393.672,310.375 387.157,316.891 387.157,324.875C387.157,332.859 393.672,339.375 401.657,339.375C409.641,339.375 416.157,332.859 416.157,324.875C416.157,316.891 409.641,310.375 401.657,310.375ZM401.657,314.375C407.48,314.375 412.157,319.052 412.157,324.875C412.157,330.698 407.48,335.375 401.657,335.375C395.834,335.375 391.157,330.698 391.157,324.875C391.157,319.052 395.834,314.375 401.657,314.375ZM331.657,310.375C323.672,310.375 317.157,316.891 317.157,324.875C317.157,332.859 323.672,339.375 331.657,339.375C339.641,339.375 346.157,332.859 346.157,324.875C346.157,316.891 339.641,310.375 331.657,310.375ZM331.657,314.375C337.48,314.375 342.157,319.052 342.157,324.875C342.157,330.698 337.48,335.375 331.657,335.375C325.834,335.375 321.157,330.698 321.157,324.875C321.157,319.052 325.834,314.375 331.657,314.375ZM366.657,261.594C344.84,261.594 320.425,263.296 301.344,273.594L300.344,274.156L300.313,275.313C300.313,275.313 299.831,292.326 300.063,310.875C300.179,320.149 300.481,329.803 301.094,337.938C301.708,346.072 302.478,352.495 304.188,356.188C309.91,368.54 317.813,376.094 317.813,376.094L319.251,377.469L320.626,376.063C336.818,359.571 350.494,345.213 366.657,328.25C383.184,345.688 396.502,359.426 412.688,376.063L414.063,377.469L415.501,376.094C415.501,376.094 423.404,368.54 429.126,356.188C430.836,352.495 431.606,346.072 432.219,337.938C432.833,329.803 433.135,320.149 433.251,310.875C433.483,292.326 433.001,275.313 433.001,275.313L432.969,274.156L431.969,273.594C412.889,263.296 388.474,261.594 366.657,261.594L366.657,261.594ZM366.657,265.594C387.857,265.594 411.178,267.387 429.032,276.625C429.078,278.384 429.469,293.432 429.251,310.844C429.135,320.069 428.822,329.665 428.219,337.656C427.617,345.647 426.57,352.223 425.501,354.531C420.927,364.405 415.779,369.918 414.063,371.688C413.184,370.783 412.396,369.951 411.532,369.063C413.239,366.998 418.999,359.879 422.469,351.906C423.127,350.396 423.483,348.439 423.813,345.844C424.144,343.248 424.4,340.091 424.594,336.563C424.984,329.506 425.149,320.974 425.188,312.719C425.266,296.209 424.844,280.813 424.844,280.813L424.813,279.531L423.657,279C407.93,272.231 385.765,269.969 366.657,269.969C347.549,269.969 325.384,272.231 309.657,279L308.501,279.531L308.469,280.813C308.469,280.813 308.048,296.209 308.126,312.719C308.165,320.974 308.33,329.506 308.719,336.563C308.914,340.091 309.17,343.248 309.501,345.844C309.831,348.439 310.187,350.396 310.844,351.906C314.321,359.894 320.09,367.049 321.782,369.094C320.916,369.98 320.131,370.821 319.251,371.719C317.549,369.966 312.397,364.426 307.813,354.531C306.744,352.223 305.697,345.647 305.094,337.656C304.492,329.665 304.179,320.069 304.063,310.844C303.845,293.432 304.236,278.384 304.282,276.625C322.135,267.387 345.457,265.594 366.657,265.594L366.657,265.594ZM366.657,273.969C384.953,273.969 406.119,276.265 420.844,282.25C420.875,283.469 421.262,296.949 421.188,312.688C421.149,320.904 420.977,329.406 420.594,336.344C420.403,339.813 420.156,342.9 419.844,345.344C419.533,347.787 419.108,349.635 418.813,350.313L418.782,350.344C415.766,357.25 410.632,363.788 408.719,366.156C395.096,352.141 382.856,339.594 368.094,324L366.657,322.469L365.219,323.969C350.802,339.101 338.296,352.102 324.594,366.156C322.678,363.783 317.511,357.228 314.501,350.313C314.206,349.635 313.781,347.787 313.469,345.344C313.158,342.9 312.911,339.813 312.719,336.344C312.337,329.406 312.164,320.904 312.126,312.688C312.051,296.949 312.439,283.469 312.469,282.25C327.195,276.265 348.361,273.969 366.657,273.969ZM366.657,342.469L365.219,343.969L326.813,383.969L325.469,385.375L326.813,386.75L365.219,426.75L366.657,428.25L368.094,426.75L406.501,386.75L407.844,385.375L406.501,383.969L368.094,343.969L366.657,342.469ZM366.657,348.25L396.626,379.469L366.657,410.469L336.688,379.469L366.657,348.25ZM333.907,382.344L365.219,414.75L366.657,416.25L368.094,414.75L399.407,382.344L402.282,385.375L366.657,422.469L331.032,385.375L333.907,382.344Z" style="fill-rule:nonzero;"/>
    </g>
</svg>
